<svg xmlns="http://www.w3.org/2000/svg" width="776" height="420" viewBox="0 0 776 420">
  <style>
    text { font-family: -apple-system, BlinkMacSystemFont, "Segoe UI", Helvetica, Arial, sans-serif; }
    .title { font-size: 15px; font-weight: 600; fill: #24292f; }
    .axis-label { font-size: 11px; fill: #57606a; }
    .legend-text { font-size: 12px; fill: #24292f; }
    .grid { stroke: #d0d7de; stroke-width: 0.5; }
    .baseline { stroke: #8c959f; stroke-width: 1; stroke-dasharray: 4 3; }
  </style>
  <rect width="100%" height="100%" fill="white"/>
  <text x="336.0" y="26" text-anchor="middle" class="title">Build + encode (view) — throughput vs each message’s first release (%)</text>
  <line x1="56" y1="364.0" x2="616" y2="364.0" class="grid"/>
  <text x="48" y="368.0" text-anchor="end" class="axis-label">90%</text>
  <line x1="56" y1="284.0" x2="616" y2="284.0" class="grid"/>
  <text x="48" y="288.0" text-anchor="end" class="axis-label">95%</text>
  <line x1="56" y1="204.0" x2="616" y2="204.0" class="grid"/>
  <text x="48" y="208.0" text-anchor="end" class="axis-label">100%</text>
  <line x1="56" y1="124.0" x2="616" y2="124.0" class="grid"/>
  <text x="48" y="128.0" text-anchor="end" class="axis-label">105%</text>
  <line x1="56" y1="44.0" x2="616" y2="44.0" class="grid"/>
  <text x="48" y="48.0" text-anchor="end" class="axis-label">110%</text>
  <line x1="56" y1="204.0" x2="616" y2="204.0" class="baseline"/>
  <text x="56.0" y="382" text-anchor="middle" class="axis-label">v0.1.0</text>
  <text x="136.0" y="382" text-anchor="middle" class="axis-label">v0.2.0</text>
  <text x="216.0" y="382" text-anchor="middle" class="axis-label">v0.3.0</text>
  <text x="296.0" y="382" text-anchor="middle" class="axis-label">v0.4.0</text>
  <text x="376.0" y="382" text-anchor="middle" class="axis-label">v0.5.0</text>
  <text x="456.0" y="382" text-anchor="middle" class="axis-label">v0.6.0</text>
  <text x="536.0" y="382" text-anchor="middle" class="axis-label">v0.7.0</text>
  <text x="616.0" y="382" text-anchor="middle" class="axis-label">v0.7.1</text>
  <path d="M296.0,204.0 L376.0,183.5 L456.0,196.1 L536.0,191.8 L616.0,189.1" fill="none" stroke="#4C78A8" stroke-width="2"/>
  <circle cx="296.0" cy="204.0" r="3" fill="#4C78A8"/>
  <circle cx="376.0" cy="183.5" r="3" fill="#4C78A8"/>
  <circle cx="456.0" cy="196.1" r="3" fill="#4C78A8"/>
  <circle cx="536.0" cy="191.8" r="3" fill="#4C78A8"/>
  <circle cx="616.0" cy="189.1" r="3" fill="#4C78A8"/>
  <path d="M296.0,204.0 L376.0,224.4 L456.0,200.7 L536.0,281.6 L616.0,232.5" fill="none" stroke="#F58518" stroke-width="2"/>
  <circle cx="296.0" cy="204.0" r="3" fill="#F58518"/>
  <circle cx="376.0" cy="224.4" r="3" fill="#F58518"/>
  <circle cx="456.0" cy="200.7" r="3" fill="#F58518"/>
  <circle cx="536.0" cy="281.6" r="3" fill="#F58518"/>
  <circle cx="616.0" cy="232.5" r="3" fill="#F58518"/>
  <path d="M296.0,204.0 L376.0,200.2 L456.0,209.3 L536.0,189.3 L616.0,224.2" fill="none" stroke="#54A24B" stroke-width="2"/>
  <circle cx="296.0" cy="204.0" r="3" fill="#54A24B"/>
  <circle cx="376.0" cy="200.2" r="3" fill="#54A24B"/>
  <circle cx="456.0" cy="209.3" r="3" fill="#54A24B"/>
  <circle cx="536.0" cy="189.3" r="3" fill="#54A24B"/>
  <circle cx="616.0" cy="224.2" r="3" fill="#54A24B"/>
  <path d="M296.0,204.0 L376.0,339.5 L456.0,240.9 L536.0,252.8 L616.0,250.4" fill="none" stroke="#E45756" stroke-width="2"/>
  <circle cx="296.0" cy="204.0" r="3" fill="#E45756"/>
  <circle cx="376.0" cy="339.5" r="3" fill="#E45756"/>
  <circle cx="456.0" cy="240.9" r="3" fill="#E45756"/>
  <circle cx="536.0" cy="252.8" r="3" fill="#E45756"/>
  <circle cx="616.0" cy="250.4" r="3" fill="#E45756"/>
  <path d="M296.0,204.0 L376.0,170.5 L456.0,205.1 L536.0,185.9 L616.0,189.0" fill="none" stroke="#72B7B2" stroke-width="2"/>
  <circle cx="296.0" cy="204.0" r="3" fill="#72B7B2"/>
  <circle cx="376.0" cy="170.5" r="3" fill="#72B7B2"/>
  <circle cx="456.0" cy="205.1" r="3" fill="#72B7B2"/>
  <circle cx="536.0" cy="185.9" r="3" fill="#72B7B2"/>
  <circle cx="616.0" cy="189.0" r="3" fill="#72B7B2"/>
  <rect x="632" y="50" width="12" height="12" rx="2" fill="#4C78A8"/>
  <text x="650" y="61" class="legend-text">ApiResponse</text>
  <rect x="632" y="72" width="12" height="12" rx="2" fill="#F58518"/>
  <text x="650" y="83" class="legend-text">LogRecord</text>
  <rect x="632" y="94" width="12" height="12" rx="2" fill="#54A24B"/>
  <text x="650" y="105" class="legend-text">AnalyticsEvent</text>
  <rect x="632" y="116" width="12" height="12" rx="2" fill="#E45756"/>
  <text x="650" y="127" class="legend-text">GoogleMessage1</text>
  <rect x="632" y="138" width="12" height="12" rx="2" fill="#72B7B2"/>
  <text x="650" y="149" class="legend-text">MediaFrame</text>
</svg>
