<svg xmlns="http://www.w3.org/2000/svg" width="776" height="420" viewBox="0 0 776 420">
  <style>
    text { font-family: -apple-system, BlinkMacSystemFont, "Segoe UI", Helvetica, Arial, sans-serif; }
    .title { font-size: 15px; font-weight: 600; fill: #24292f; }
    .axis-label { font-size: 11px; fill: #57606a; }
    .legend-text { font-size: 12px; fill: #24292f; }
    .grid { stroke: #d0d7de; stroke-width: 0.5; }
    .baseline { stroke: #8c959f; stroke-width: 1; stroke-dasharray: 4 3; }
  </style>
  <rect width="100%" height="100%" fill="white"/>
  <text x="336.0" y="26" text-anchor="middle" class="title">View decode — throughput vs each message’s first release (%)</text>
  <line x1="56" y1="364.0" x2="616" y2="364.0" class="grid"/>
  <text x="48" y="368.0" text-anchor="end" class="axis-label">80%</text>
  <line x1="56" y1="310.7" x2="616" y2="310.7" class="grid"/>
  <text x="48" y="314.7" text-anchor="end" class="axis-label">85%</text>
  <line x1="56" y1="257.3" x2="616" y2="257.3" class="grid"/>
  <text x="48" y="261.3" text-anchor="end" class="axis-label">90%</text>
  <line x1="56" y1="204.0" x2="616" y2="204.0" class="grid"/>
  <text x="48" y="208.0" text-anchor="end" class="axis-label">95%</text>
  <line x1="56" y1="150.7" x2="616" y2="150.7" class="grid"/>
  <text x="48" y="154.7" text-anchor="end" class="axis-label">100%</text>
  <line x1="56" y1="97.3" x2="616" y2="97.3" class="grid"/>
  <text x="48" y="101.3" text-anchor="end" class="axis-label">105%</text>
  <line x1="56" y1="44.0" x2="616" y2="44.0" class="grid"/>
  <text x="48" y="48.0" text-anchor="end" class="axis-label">110%</text>
  <line x1="56" y1="150.7" x2="616" y2="150.7" class="baseline"/>
  <text x="56.0" y="382" text-anchor="middle" class="axis-label">v0.1.0</text>
  <text x="136.0" y="382" text-anchor="middle" class="axis-label">v0.2.0</text>
  <text x="216.0" y="382" text-anchor="middle" class="axis-label">v0.3.0</text>
  <text x="296.0" y="382" text-anchor="middle" class="axis-label">v0.4.0</text>
  <text x="376.0" y="382" text-anchor="middle" class="axis-label">v0.5.0</text>
  <text x="456.0" y="382" text-anchor="middle" class="axis-label">v0.6.0</text>
  <text x="536.0" y="382" text-anchor="middle" class="axis-label">v0.7.0</text>
  <text x="616.0" y="382" text-anchor="middle" class="axis-label">v0.7.1</text>
  <path d="M56.0,150.7 L136.0,195.9 L216.0,73.9 L296.0,208.5 L376.0,175.1 L456.0,274.9 L536.0,332.0 L616.0,339.7" fill="none" stroke="#4C78A8" stroke-width="2"/>
  <circle cx="56.0" cy="150.7" r="3" fill="#4C78A8"/>
  <circle cx="136.0" cy="195.9" r="3" fill="#4C78A8"/>
  <circle cx="216.0" cy="73.9" r="3" fill="#4C78A8"/>
  <circle cx="296.0" cy="208.5" r="3" fill="#4C78A8"/>
  <circle cx="376.0" cy="175.1" r="3" fill="#4C78A8"/>
  <circle cx="456.0" cy="274.9" r="3" fill="#4C78A8"/>
  <circle cx="536.0" cy="332.0" r="3" fill="#4C78A8"/>
  <circle cx="616.0" cy="339.7" r="3" fill="#4C78A8"/>
  <path d="M56.0,150.7 L136.0,164.7 L216.0,208.6 L296.0,154.0 L376.0,151.3 L456.0,214.0 L536.0,268.0 L616.0,301.9" fill="none" stroke="#F58518" stroke-width="2"/>
  <circle cx="56.0" cy="150.7" r="3" fill="#F58518"/>
  <circle cx="136.0" cy="164.7" r="3" fill="#F58518"/>
  <circle cx="216.0" cy="208.6" r="3" fill="#F58518"/>
  <circle cx="296.0" cy="154.0" r="3" fill="#F58518"/>
  <circle cx="376.0" cy="151.3" r="3" fill="#F58518"/>
  <circle cx="456.0" cy="214.0" r="3" fill="#F58518"/>
  <circle cx="536.0" cy="268.0" r="3" fill="#F58518"/>
  <circle cx="616.0" cy="301.9" r="3" fill="#F58518"/>
  <path d="M56.0,150.7 L136.0,157.5 L216.0,168.5 L296.0,151.1 L376.0,148.7 L456.0,153.5 L536.0,160.8 L616.0,198.4" fill="none" stroke="#54A24B" stroke-width="2"/>
  <circle cx="56.0" cy="150.7" r="3" fill="#54A24B"/>
  <circle cx="136.0" cy="157.5" r="3" fill="#54A24B"/>
  <circle cx="216.0" cy="168.5" r="3" fill="#54A24B"/>
  <circle cx="296.0" cy="151.1" r="3" fill="#54A24B"/>
  <circle cx="376.0" cy="148.7" r="3" fill="#54A24B"/>
  <circle cx="456.0" cy="153.5" r="3" fill="#54A24B"/>
  <circle cx="536.0" cy="160.8" r="3" fill="#54A24B"/>
  <circle cx="616.0" cy="198.4" r="3" fill="#54A24B"/>
  <path d="M56.0,150.7 L136.0,237.2 L216.0,187.5 L296.0,158.0 L376.0,180.6 L456.0,221.0 L536.0,325.0 L616.0,239.1" fill="none" stroke="#E45756" stroke-width="2"/>
  <circle cx="56.0" cy="150.7" r="3" fill="#E45756"/>
  <circle cx="136.0" cy="237.2" r="3" fill="#E45756"/>
  <circle cx="216.0" cy="187.5" r="3" fill="#E45756"/>
  <circle cx="296.0" cy="158.0" r="3" fill="#E45756"/>
  <circle cx="376.0" cy="180.6" r="3" fill="#E45756"/>
  <circle cx="456.0" cy="221.0" r="3" fill="#E45756"/>
  <circle cx="536.0" cy="325.0" r="3" fill="#E45756"/>
  <circle cx="616.0" cy="239.1" r="3" fill="#E45756"/>
  <path d="M296.0,150.7 L376.0,151.3 L456.0,181.9 L536.0,244.3 L616.0,357.3" fill="none" stroke="#72B7B2" stroke-width="2"/>
  <circle cx="296.0" cy="150.7" r="3" fill="#72B7B2"/>
  <circle cx="376.0" cy="151.3" r="3" fill="#72B7B2"/>
  <circle cx="456.0" cy="181.9" r="3" fill="#72B7B2"/>
  <circle cx="536.0" cy="244.3" r="3" fill="#72B7B2"/>
  <circle cx="616.0" cy="357.3" r="3" fill="#72B7B2"/>
  <path d="M616.0,150.7" fill="none" stroke="#B279A2" stroke-width="2"/>
  <circle cx="616.0" cy="150.7" r="3" fill="#B279A2"/>
  <rect x="632" y="50" width="12" height="12" rx="2" fill="#4C78A8"/>
  <text x="650" y="61" class="legend-text">ApiResponse</text>
  <rect x="632" y="72" width="12" height="12" rx="2" fill="#F58518"/>
  <text x="650" y="83" class="legend-text">LogRecord</text>
  <rect x="632" y="94" width="12" height="12" rx="2" fill="#54A24B"/>
  <text x="650" y="105" class="legend-text">AnalyticsEvent</text>
  <rect x="632" y="116" width="12" height="12" rx="2" fill="#E45756"/>
  <text x="650" y="127" class="legend-text">GoogleMessage1</text>
  <rect x="632" y="138" width="12" height="12" rx="2" fill="#72B7B2"/>
  <text x="650" y="149" class="legend-text">MediaFrame</text>
  <rect x="632" y="160" width="12" height="12" rx="2" fill="#B279A2"/>
  <text x="650" y="171" class="legend-text">PackedTile</text>
</svg>
