<svg xmlns="http://www.w3.org/2000/svg" width="776" height="420" viewBox="0 0 776 420">
  <style>
    text { font-family: -apple-system, BlinkMacSystemFont, "Segoe UI", Helvetica, Arial, sans-serif; }
    .title { font-size: 15px; font-weight: 600; fill: #24292f; }
    .axis-label { font-size: 11px; fill: #57606a; }
    .legend-text { font-size: 12px; fill: #24292f; }
    .grid { stroke: #d0d7de; stroke-width: 0.5; }
    .baseline { stroke: #8c959f; stroke-width: 1; stroke-dasharray: 4 3; }
  </style>
  <rect width="100%" height="100%" fill="white"/>
  <text x="336.0" y="26" text-anchor="middle" class="title">JSON decode — throughput vs each message’s first release (%)</text>
  <line x1="56" y1="364.0" x2="616" y2="364.0" class="grid"/>
  <text x="48" y="368.0" text-anchor="end" class="axis-label">90%</text>
  <line x1="56" y1="284.0" x2="616" y2="284.0" class="grid"/>
  <text x="48" y="288.0" text-anchor="end" class="axis-label">95%</text>
  <line x1="56" y1="204.0" x2="616" y2="204.0" class="grid"/>
  <text x="48" y="208.0" text-anchor="end" class="axis-label">100%</text>
  <line x1="56" y1="124.0" x2="616" y2="124.0" class="grid"/>
  <text x="48" y="128.0" text-anchor="end" class="axis-label">105%</text>
  <line x1="56" y1="44.0" x2="616" y2="44.0" class="grid"/>
  <text x="48" y="48.0" text-anchor="end" class="axis-label">110%</text>
  <line x1="56" y1="204.0" x2="616" y2="204.0" class="baseline"/>
  <text x="56.0" y="382" text-anchor="middle" class="axis-label">v0.1.0</text>
  <text x="136.0" y="382" text-anchor="middle" class="axis-label">v0.2.0</text>
  <text x="216.0" y="382" text-anchor="middle" class="axis-label">v0.3.0</text>
  <text x="296.0" y="382" text-anchor="middle" class="axis-label">v0.4.0</text>
  <text x="376.0" y="382" text-anchor="middle" class="axis-label">v0.5.0</text>
  <text x="456.0" y="382" text-anchor="middle" class="axis-label">v0.6.0</text>
  <text x="536.0" y="382" text-anchor="middle" class="axis-label">v0.7.0</text>
  <text x="616.0" y="382" text-anchor="middle" class="axis-label">v0.7.1</text>
  <path d="M56.0,204.0 L136.0,227.6 L216.0,158.6 L296.0,247.0 L376.0,207.7 L456.0,214.9 L536.0,209.2 L616.0,223.6" fill="none" stroke="#4C78A8" stroke-width="2"/>
  <circle cx="56.0" cy="204.0" r="3" fill="#4C78A8"/>
  <circle cx="136.0" cy="227.6" r="3" fill="#4C78A8"/>
  <circle cx="216.0" cy="158.6" r="3" fill="#4C78A8"/>
  <circle cx="296.0" cy="247.0" r="3" fill="#4C78A8"/>
  <circle cx="376.0" cy="207.7" r="3" fill="#4C78A8"/>
  <circle cx="456.0" cy="214.9" r="3" fill="#4C78A8"/>
  <circle cx="536.0" cy="209.2" r="3" fill="#4C78A8"/>
  <circle cx="616.0" cy="223.6" r="3" fill="#4C78A8"/>
  <path d="M56.0,204.0 L136.0,245.8 L216.0,261.2 L296.0,251.0 L376.0,207.9 L456.0,232.7 L536.0,216.6 L616.0,195.8" fill="none" stroke="#F58518" stroke-width="2"/>
  <circle cx="56.0" cy="204.0" r="3" fill="#F58518"/>
  <circle cx="136.0" cy="245.8" r="3" fill="#F58518"/>
  <circle cx="216.0" cy="261.2" r="3" fill="#F58518"/>
  <circle cx="296.0" cy="251.0" r="3" fill="#F58518"/>
  <circle cx="376.0" cy="207.9" r="3" fill="#F58518"/>
  <circle cx="456.0" cy="232.7" r="3" fill="#F58518"/>
  <circle cx="536.0" cy="216.6" r="3" fill="#F58518"/>
  <circle cx="616.0" cy="195.8" r="3" fill="#F58518"/>
  <path d="M56.0,204.0 L136.0,235.9 L216.0,245.0 L296.0,220.5 L376.0,205.2 L456.0,202.9 L536.0,218.5 L616.0,206.8" fill="none" stroke="#54A24B" stroke-width="2"/>
  <circle cx="56.0" cy="204.0" r="3" fill="#54A24B"/>
  <circle cx="136.0" cy="235.9" r="3" fill="#54A24B"/>
  <circle cx="216.0" cy="245.0" r="3" fill="#54A24B"/>
  <circle cx="296.0" cy="220.5" r="3" fill="#54A24B"/>
  <circle cx="376.0" cy="205.2" r="3" fill="#54A24B"/>
  <circle cx="456.0" cy="202.9" r="3" fill="#54A24B"/>
  <circle cx="536.0" cy="218.5" r="3" fill="#54A24B"/>
  <circle cx="616.0" cy="206.8" r="3" fill="#54A24B"/>
  <path d="M56.0,204.0 L136.0,165.8 L216.0,170.7 L296.0,222.5 L376.0,82.5 L456.0,140.5 L536.0,119.6 L616.0,148.4" fill="none" stroke="#E45756" stroke-width="2"/>
  <circle cx="56.0" cy="204.0" r="3" fill="#E45756"/>
  <circle cx="136.0" cy="165.8" r="3" fill="#E45756"/>
  <circle cx="216.0" cy="170.7" r="3" fill="#E45756"/>
  <circle cx="296.0" cy="222.5" r="3" fill="#E45756"/>
  <circle cx="376.0" cy="82.5" r="3" fill="#E45756"/>
  <circle cx="456.0" cy="140.5" r="3" fill="#E45756"/>
  <circle cx="536.0" cy="119.6" r="3" fill="#E45756"/>
  <circle cx="616.0" cy="148.4" r="3" fill="#E45756"/>
  <path d="M296.0,204.0 L376.0,212.0 L456.0,208.0 L536.0,175.6 L616.0,216.1" fill="none" stroke="#72B7B2" stroke-width="2"/>
  <circle cx="296.0" cy="204.0" r="3" fill="#72B7B2"/>
  <circle cx="376.0" cy="212.0" r="3" fill="#72B7B2"/>
  <circle cx="456.0" cy="208.0" r="3" fill="#72B7B2"/>
  <circle cx="536.0" cy="175.6" r="3" fill="#72B7B2"/>
  <circle cx="616.0" cy="216.1" r="3" fill="#72B7B2"/>
  <rect x="632" y="50" width="12" height="12" rx="2" fill="#4C78A8"/>
  <text x="650" y="61" class="legend-text">ApiResponse</text>
  <rect x="632" y="72" width="12" height="12" rx="2" fill="#F58518"/>
  <text x="650" y="83" class="legend-text">LogRecord</text>
  <rect x="632" y="94" width="12" height="12" rx="2" fill="#54A24B"/>
  <text x="650" y="105" class="legend-text">AnalyticsEvent</text>
  <rect x="632" y="116" width="12" height="12" rx="2" fill="#E45756"/>
  <text x="650" y="127" class="legend-text">GoogleMessage1</text>
  <rect x="632" y="138" width="12" height="12" rx="2" fill="#72B7B2"/>
  <text x="650" y="149" class="legend-text">MediaFrame</text>
</svg>
